<?xml version="1.0" encoding="UTF-8" standalone="no"?><!DOCTYPE svg PUBLIC "-//W3C//DTD SVG 1.1//EN"
        "http://www.w3.org/Graphics/SVG/1.1/DTD/svg11.dtd">
<svg  width="75.797" height="65.399" viewBox="0 0 537 561" version="1.1" xmlns="http://www.w3.org/2000/svg"
     xml:space="preserve"
     style="fill-rule:evenodd;clip-rule:evenodd;stroke-linecap:round;stroke-linejoin:round;stroke-miterlimit:1.5;"><g><g><path d="M212.583,87.833l0,60.667" style="fill:none;stroke:#4664a5;stroke-width:16px;"/><path
        d="M245.583,87.833l0,60.667" style="fill:none;stroke:#4664a5;stroke-width:16px;" /><path
        d="M294.583,87.833l0,60.667" style="fill:none;stroke:#4664a5;stroke-width:16px;" /><path
        d="M327.583,87.833l0,60.667" style="fill:none;stroke:#4664a5;stroke-width:16px;" /><path
        d="M212.693,87.5c1.843,-23.422 26.853,-42 57.39,-42c30.538,0 55.547,18.578 57.391,42l-114.781,0Z"
        style="fill:none;stroke:#4664a5;stroke-width:16px;" /><path d="M270.083,7.5l0,38"
                                                                 style="fill:none;stroke:#4664a5;stroke-width:16px;" /><path
        d="M7.5,527c0,0 11.42,8.047 21.615,15.23c9.38,6.609 21.902,6.609 31.282,0c1.976,-1.393 3.998,-2.817 5.974,-4.21c9.38,-6.609 21.902,-6.609 31.282,0c1.976,1.393 3.998,2.817 5.974,4.21c9.38,6.609 21.902,6.609 31.282,0c1.976,-1.393 3.998,-2.817 5.974,-4.21c9.38,-6.609 21.902,-6.609 31.282,0c1.976,1.393 3.998,2.817 5.974,4.21c9.38,6.609 21.902,6.609 31.282,0c1.976,-1.393 3.998,-2.817 5.974,-4.21c9.38,-6.609 21.902,-6.609 31.282,0c1.976,1.393 3.998,2.817 5.974,4.21c9.38,6.609 21.902,6.609 31.282,0c1.976,-1.393 3.998,-2.817 5.974,-4.21c9.38,-6.609 21.901,-6.609 31.281,0c1.977,1.393 3.999,2.817 5.975,4.21c9.38,6.609 21.901,6.609 31.281,0c1.977,-1.393 3.999,-2.817 5.975,-4.21c9.38,-6.609 21.901,-6.609 31.281,0c1.976,1.393 3.999,2.817 5.975,4.21c9.38,6.609 21.901,6.609 31.281,0c1.976,-1.393 3.999,-2.817 5.975,-4.21c9.38,-6.609 21.901,-6.609 31.281,0c1.976,1.393 3.999,2.817 5.975,4.21c9.38,6.609 21.901,6.609 31.281,0c10.195,-7.183 21.615,-15.23 21.615,-15.23"
        style="fill:none;stroke:#4664a5;stroke-width:16px;" /><path d="M156.524,527l0,-41.833l221.726,0l0,43.108"
                                                                 style="fill:none;stroke:#4664a5;stroke-width:16px;" /><path
        d="M200.25,200.833l-8.333,284.334" style="fill:none;stroke:#4664a5;stroke-width:16px;" /><path
        d="M338.25,200.833l8.333,284.334" style="fill:none;stroke:#4664a5;stroke-width:16px;" /><rect x="183.25" y="148.5"
                                                                                                   width="172"
                                                                                                   height="51"
                                                                                                   style="fill:none;stroke:#4664a5;stroke-width:16px;" /><path
        d="M198.697,253.827l139.553,-52.994" style="fill:none;stroke:#4664a5;stroke-width:16px;" /><path
        d="M198.697,311.16l139.553,-52.993" style="fill:none;stroke:#4664a5;stroke-width:16px;" /><path
        d="M198.697,367.827l139.553,-52.994" style="fill:none;stroke:#4664a5;stroke-width:16px;" /><path
        d="M198.697,424.827l139.553,-52.994" style="fill:none;stroke:#4664a5;stroke-width:16px;" /><path
        d="M198.697,481.16l139.553,-52.993" style="fill:none;stroke:#4664a5;stroke-width:16px;" /></g><g><path d="M79.819,215.922l-54.509,72.042l71.722,43.352l-49.728,-46.54l32.515,-68.854Z" style="fill:#4664a5;"/>
    <path d="M462.02,271.069l54.509,-72.041l-71.722,-43.353l49.727,46.54l-32.514,68.854Z" style="fill:#4664a5;" /></g></g></svg>
